<svg xmlns="http://www.w3.org/2000/svg" viewBox="0 0 375 812" width="375" height="812">
  <rect width="375" height="812" rx="40" fill="#FAF7F2"/>
  <rect x="20" y="60" width="335" height="60" rx="12" fill="#F5EFE7"/>
  <text x="187" y="100" text-anchor="middle" font-family="system-ui" font-size="18" font-weight="600" fill="#4A4745">Vocabulary</text>
  <rect x="30" y="150" width="315" height="70" rx="12" fill="#F5EFE7" stroke="#D8D4CF" stroke-width="1"/>
  <text x="50" y="185" font-family="system-ui" font-size="18" font-weight="600" fill="#4A4745">hund</text>
  <text x="50" y="205" font-family="system-ui" font-size="14" fill="#8E8B87">dog</text>
  <circle cx="320" cy="185" r="12" fill="#D4826C"/>
  <rect x="30" y="235" width="315" height="70" rx="12" fill="#F5EFE7" stroke="#D8D4CF" stroke-width="1"/>
  <text x="50" y="270" font-family="system-ui" font-size="18" font-weight="600" fill="#4A4745">kat</text>
  <text x="50" y="290" font-family="system-ui" font-size="14" fill="#8E8B87">cat</text>
  <circle cx="320" cy="270" r="12" fill="#D4826C"/>
  <rect x="30" y="320" width="315" height="70" rx="12" fill="#F5EFE7" stroke="#D8D4CF" stroke-width="1"/>
  <text x="50" y="355" font-family="system-ui" font-size="18" font-weight="600" fill="#4A4745">hus</text>
  <text x="50" y="375" font-family="system-ui" font-size="14" fill="#8E8B87">house</text>
  <circle cx="320" cy="355" r="12" fill="#D8D4CF"/>
  <rect x="30" y="405" width="315" height="70" rx="12" fill="#F5EFE7" stroke="#D8D4CF" stroke-width="1"/>
  <text x="50" y="440" font-family="system-ui" font-size="18" font-weight="600" fill="#4A4745">bil</text>
  <text x="50" y="460" font-family="system-ui" font-size="14" fill="#8E8B87">car</text>
  <circle cx="320" cy="440" r="12" fill="#D8D4CF"/>
  <text x="187" y="750" text-anchor="middle" font-family="system-ui" font-size="14" fill="#8E8B87">Placeholder - Replace with real screenshot</text>
</svg>
