<svg xmlns="http://www.w3.org/2000/svg" viewBox="0 0 375 812" width="375" height="812">
  <rect width="375" height="812" rx="40" fill="#FAF7F2"/>
  <rect x="20" y="60" width="335" height="60" rx="12" fill="#F5EFE7"/>
  <text x="187" y="100" text-anchor="middle" font-family="system-ui" font-size="18" font-weight="600" fill="#4A4745">Progress</text>
  <rect x="30" y="150" width="150" height="100" rx="12" fill="#F5EFE7"/>
  <text x="105" y="190" text-anchor="middle" font-family="system-ui" font-size="36" font-weight="700" fill="#D4826C">247</text>
  <text x="105" y="220" text-anchor="middle" font-family="system-ui" font-size="14" fill="#8E8B87">Words Learned</text>
  <rect x="195" y="150" width="150" height="100" rx="12" fill="#F5EFE7"/>
  <text x="270" y="190" text-anchor="middle" font-family="system-ui" font-size="36" font-weight="700" fill="#D4826C">12</text>
  <text x="270" y="220" text-anchor="middle" font-family="system-ui" font-size="14" fill="#8E8B87">Day Streak</text>
  <rect x="30" y="280" width="315" height="200" rx="12" fill="#F5EFE7"/>
  <text x="187" y="320" text-anchor="middle" font-family="system-ui" font-size="16" font-weight="600" fill="#4A4745">Weekly Activity</text>
  <rect x="50" y="420" width="30" height="40" rx="4" fill="#D4826C"/>
  <rect x="95" y="400" width="30" height="60" rx="4" fill="#D4826C"/>
  <rect x="140" y="380" width="30" height="80" rx="4" fill="#D4826C"/>
  <rect x="185" y="390" width="30" height="70" rx="4" fill="#D4826C"/>
  <rect x="230" y="410" width="30" height="50" rx="4" fill="#D4826C"/>
  <rect x="275" y="430" width="30" height="30" rx="4" fill="#D8D4CF"/>
  <rect x="320" y="430" width="30" height="30" rx="4" fill="#D8D4CF"/>
  <text x="187" y="750" text-anchor="middle" font-family="system-ui" font-size="14" fill="#8E8B87">Placeholder - Replace with real screenshot</text>
</svg>
